<svg width="31" height="30" viewBox="0 0 31 30" fill="none" xmlns="http://www.w3.org/2000/svg">
<g id="search_24px">
<path id="icon/action/search_24px" fill-rule="evenodd" clip-rule="evenodd" d="M18.1029 17.75H19.1217L25.5576 24L23.6358 25.8625L17.1871 19.625V18.6375L16.8389 18.2875C15.3686 19.5125 13.4598 20.25 11.3833 20.25C6.75314 20.25 3 16.6125 3 12.125C3 7.6375 6.75314 4 11.3833 4C16.0135 4 19.7666 7.6375 19.7666 12.125C19.7666 14.1375 19.0057 15.9875 17.7417 17.4125L18.1029 17.75ZM5.57948 12.125C5.57948 15.2375 8.17186 17.75 11.3833 17.75C14.5948 17.75 17.1871 15.2375 17.1871 12.125C17.1871 9.0125 14.5948 6.5 11.3833 6.5C8.17186 6.5 5.57948 9.0125 5.57948 12.125Z" fill="#858585"/>
</g>
</svg>
