<svg width="60" height="60" viewBox="0 0 60 60" fill="none" xmlns="http://www.w3.org/2000/svg">
<path d="M40 12.5C37.7019 12.5 35.4262 12.9527 33.303 13.8321C31.1798 14.7116 29.2507 16.0006 27.6256 17.6256C26.0006 19.2507 24.7116 21.1798 23.8321 23.303C22.9527 25.4262 22.5 27.7019 22.5 30C22.5 32.2981 22.9527 34.5738 23.8321 36.697C24.7116 38.8202 26.0006 40.7493 27.6256 42.3744C29.2507 43.9994 31.1798 45.2884 33.303 46.1679C35.4262 47.0474 37.7019 47.5 40 47.5C42.2981 47.5 44.5738 47.0474 46.697 46.1679C48.8202 45.2884 50.7493 43.9994 52.3744 42.3744C53.9994 40.7493 55.2884 38.8202 56.1679 36.697C57.0473 34.5738 57.5 32.2981 57.5 30C57.5 27.7019 57.0473 25.4262 56.1679 23.303C55.2884 21.1798 53.9994 19.2507 52.3744 17.6256C50.7493 16.0006 48.8202 14.7116 46.697 13.8321C44.5738 12.9527 42.2981 12.5 40 12.5Z" fill="#FF9800"/>
<path d="M20 12.5C17.7019 12.5 15.4262 12.9527 13.303 13.8321C11.1798 14.7116 9.25066 16.0006 7.62563 17.6256C6.00061 19.2507 4.71157 21.1798 3.83211 23.303C2.95265 25.4262 2.5 27.7019 2.5 30C2.5 32.2981 2.95265 34.5738 3.83211 36.697C4.71157 38.8202 6.00061 40.7493 7.62563 42.3744C9.25066 43.9994 11.1798 45.2884 13.303 46.1679C15.4262 47.0474 17.7019 47.5 20 47.5C22.2981 47.5 24.5738 47.0474 26.697 46.1679C28.8202 45.2884 30.7493 43.9994 32.3744 42.3744C33.9994 40.7493 35.2884 38.8202 36.1679 36.697C37.0473 34.5738 37.5 32.2981 37.5 30C37.5 27.7019 37.0473 25.4262 36.1679 23.303C35.2884 21.1798 33.9994 19.2507 32.3744 17.6256C30.7493 16.0006 28.8202 14.7116 26.697 13.8321C24.5738 12.9527 22.2981 12.5 20 12.5Z" fill="#D50000"/>
<path d="M22.5 30C22.5 35.9437 25.47 41.1875 30 44.35C34.53 41.1875 37.5 35.9437 37.5 30C37.5 24.0562 34.53 18.8125 30 15.65C25.47 18.8125 22.5 24.0562 22.5 30Z" fill="#FF3D00"/>
</svg>
